<svg width="159" height="200" viewBox="0 0 159 200" fill="none" xmlns="http://www.w3.org/2000/svg">
<g id="icon-24-one-finger-tap">
<path id="one-finger-tap" fill-rule="evenodd" clip-rule="evenodd" d="M83.3554 50.3846C87.655 45.0712 90.2304 38.3051 90.2304 30.9375C90.2304 13.8512 76.3792 0 59.2929 0C42.2066 0 28.3554 13.8512 28.3554 30.9375C28.3554 38.3051 30.9308 45.0712 35.2304 50.3846V30.8777C35.2304 17.6086 46.0035 6.875 59.2929 6.875C72.5552 6.875 83.3554 17.6214 83.3554 30.8777V50.3846ZM100.534 192.5C129.016 192.5 152.105 167.852 152.105 140.938V115.15V99.699C152.105 93.9972 147.528 89.375 141.793 89.375C136.097 89.375 131.48 93.9894 131.48 99.699V103.125H124.605V85.9818C124.605 80.2619 120.028 75.625 114.293 75.625C108.597 75.625 103.98 80.2418 103.98 85.9818V96.25H97.1054V79.1068C97.1054 73.3869 92.528 68.75 86.7929 68.75C81.0975 68.75 76.4804 73.3668 76.4804 79.1068V103.125H69.6054V30.9735C69.6054 25.2582 65.028 20.625 59.2929 20.625C53.5975 20.625 48.9804 25.2115 48.9804 30.9735V108.625C34.8289 93.497 16.1978 76.8565 8.56249 84.533C1.0882 92.0477 20.3485 112.755 47.2436 158.009C59.3616 178.399 74.6948 192.497 100.534 192.5ZM158.98 140.938C158.98 173.212 132.817 199.375 100.543 199.375C79.1416 199.375 56.5553 189.389 41.011 161.069C18.5745 120.192 -10.1181 93.3846 3.54429 79.7221C13.3181 69.9483 28.6637 79.3249 42.1054 91.8967V30.9953C42.1054 21.4185 49.8005 13.75 59.2929 13.75C68.8515 13.75 76.4804 21.471 76.4804 30.9953V65.3013C79.353 63.149 82.9236 61.875 86.7929 61.875C94.2352 61.875 100.508 66.5326 102.92 73.0684C105.951 70.3862 109.932 68.75 114.293 68.75C123.851 68.75 131.48 76.4378 131.48 85.9212V86.0137C134.353 83.8648 137.924 82.5976 141.793 82.5976C151.351 82.5976 158.98 90.2931 158.98 99.7859V140.938Z" fill="white"/>
</g>
</svg>
