<svg width="85" height="94" viewBox="0 0 85 94" fill="none" xmlns="http://www.w3.org/2000/svg">
<path d="M3.34422 23.5446H80.5893V19.5446H3.34422V23.5446ZM7.82405 2H76.2463C79.4628 2 82.0703 4.60752 82.0703 7.82405V85.3909C82.0703 88.6074 79.4628 91.2149 76.2463 91.2149H7.82405C4.60752 91.2149 2 88.6074 2 85.3909V7.82406C2 4.60752 4.60752 2 7.82405 2Z" fill="white" stroke="black" stroke-width="4"/>
<circle cx="42.0377" cy="54.2368" r="23.3652" stroke="black" stroke-width="5.21603"/>
<path d="M51.2368 41.3612C48.75 43.6476 45.2685 49.3754 51.2368 53.9961C57.2051 58.6169 53.7236 64.6656 51.2368 67.1124" stroke="black" stroke-width="3.26002" stroke-linecap="round"/>
<path d="M42.0356 41.3612C39.5488 43.6476 36.0674 49.3754 42.0356 53.9961C48.0039 58.6169 44.5224 64.6656 42.0356 67.1124" stroke="black" stroke-width="3.26002" stroke-linecap="round"/>
<path d="M32.8364 41.3612C30.3496 43.6476 26.8681 49.3754 32.8364 53.9961C38.8047 58.6169 35.3232 64.6656 32.8364 67.1124" stroke="black" stroke-width="3.26002" stroke-linecap="round"/>
<circle cx="70.052" cy="12.0059" r="3.08396" stroke="black" stroke-width="2.60802"/>
<circle cx="58.9173" cy="12.0059" r="3.08396" stroke="black" stroke-width="2.60802"/>
<circle cx="16.0618" cy="12.0059" r="3.08396" stroke="black" stroke-width="2.60802"/>
<circle cx="49.6551" cy="12.0059" r="1.02225" fill="black"/>
<circle cx="46.3543" cy="12.0059" r="1.02225" fill="black"/>
<circle cx="43.0613" cy="12.0059" r="1.02225" fill="black"/>
<path d="M29.4102 2.86243V20.7794" stroke="black" stroke-width="3" stroke-linecap="round"/>
</svg>
